<svg 
 xmlns="http://www.w3.org/2000/svg"
 xmlns:xlink="http://www.w3.org/1999/xlink"
 width="47px" height="47px">
<path fill-rule="evenodd"  fill="rgb(255, 255, 255)"
 d="M42.714,38.455 L42.714,47.001 L38.442,47.001 L38.442,38.455 L34.170,38.455 L34.170,25.635 L38.442,25.635 L38.442,-0.004 L42.714,-0.004 L42.714,25.635 L46.986,25.635 L46.986,38.455 L42.714,38.455 ZM42.714,29.908 L38.442,29.908 L38.442,34.181 L42.714,34.181 L42.714,29.908 ZM25.626,47.001 L21.354,47.001 L21.354,21.362 L17.082,21.362 L17.082,8.543 L21.354,8.543 L21.354,-0.004 L25.626,-0.004 L25.626,8.543 L29.898,8.543 L29.898,21.362 L25.626,21.362 L25.626,47.001 ZM25.626,12.816 L21.354,12.816 L21.354,17.089 L25.626,17.089 L25.626,12.816 ZM8.538,47.001 L4.267,47.001 L4.267,38.455 L-0.006,38.455 L-0.006,25.635 L4.267,25.635 L4.267,-0.004 L8.538,-0.004 L8.538,25.635 L12.810,25.635 L12.810,38.455 L8.538,38.455 L8.538,47.001 ZM8.538,29.908 L4.267,29.908 L4.267,34.181 L8.538,34.181 L8.538,29.908 Z"/>
</svg>