<svg 
 xmlns="http://www.w3.org/2000/svg"
 xmlns:xlink="http://www.w3.org/1999/xlink"
 width="47px" height="47px">
<path fill-rule="evenodd"  fill="rgb(255, 255, 255)"
 d="M20.111,0.000 C31.201,0.000 40.223,9.022 40.223,20.111 C40.223,24.516 38.798,28.594 36.386,31.910 L46.075,41.598 C47.310,42.833 47.310,44.837 46.075,46.073 C45.457,46.691 44.647,47.000 43.837,47.000 C43.028,47.000 42.218,46.691 41.600,46.073 L31.911,36.385 C28.594,38.796 24.516,40.221 20.111,40.221 L20.111,40.221 C9.022,40.221 -0.000,31.199 -0.000,20.110 C-0.000,9.021 9.022,0.000 20.111,0.000 L20.111,0.000 ZM20.111,33.893 C27.711,33.892 33.894,27.710 33.894,20.111 C33.894,12.511 27.711,6.329 20.111,6.329 C12.512,6.329 6.329,12.511 6.329,20.110 C6.329,27.710 12.512,33.892 20.111,33.893 L20.111,33.893 Z"/>
</svg>